<?xml version="1.0" encoding="UTF-8"?>
<svg id="Layer_1" xmlns="http://www.w3.org/2000/svg" version="1.1" viewBox="0 0 1417.9 420">
  <!-- Generator: Adobe Illustrator 29.3.0, SVG Export Plug-In . SVG Version: 2.1.0 Build 146)  -->
  <defs>
    <style>
      .st0 {
        fill: #c83339;
      }

      .st1 {
        fill: #fff;
      }

      .st2 {
        fill: #174186;
      }
    </style>
  </defs>
  <g>
    <path class="st1" d="M398.8,407.3h-46.4V13.1h71.8l48,325.2c-7.2-77.3-16.6-202.1-16.6-267.8V13.1h46.4v394.3h-65.7l-44.2-315.8c3.9,70.7,6.6,155.2,6.6,202.6v113.2h.1Z"/>
    <path class="st1" d="M581.6,236.1v121.5h8.8c16.6,0,21.5-9.4,21.5-28.2v-66.8c0-19.3-6.1-26.5-23.7-26.5h-6.6ZM581.6,62.8v130.3h6.6c18.8,0,23.7-7.2,23.7-28.7v-75.1c0-18.2-5.5-26.5-21.5-26.5h-8.8ZM528.6,407.3V13.1h65.7c43.6,0,70.7,23.7,70.7,79v58c0,35.9-11,54.1-26.5,63.5,15.5,9.9,26.5,27.6,26.5,58v57.4c0,54.1-28.7,78.4-70.7,78.4h-65.7Z"/>
    <path class="st1" d="M733.4,288.6h28.2l-4.4-72.3c-1.6-28.7-6.1-119.8-9.4-169h-2.2l-7.7,169-4.4,72.3h0ZM764.3,333.3h-33.1l-4.4,74h-53.6L711.8,13.1h75.1l37.6,394.3h-55.8l-4.4-74h0Z"/>
    <path class="st1" d="M992.6,337.7c0,53.6-18.8,72.9-51.4,72.9s-52.5-19.3-52.5-72.9v-59.7h28.2v65.8c0,28.2,5,39.8,24.3,39.8s23.2-11.6,23.2-39.8v-22.7c0-30.4-2.8-48.6-35.4-93.9-26-36.5-40.3-58.6-40.3-109.4v-35.4c0-53.6,19.9-72.9,52.5-72.9s51.4,19.3,51.4,72.9v59.1h-28.2v-65.2c0-28.2-3.9-39.8-23.2-39.8s-24.3,11.6-24.3,39.8v35.9c0,40.9,7.2,55.3,32,90.6,35.4,49.7,43.7,65.2,43.7,111.1v23.8h0Z"/>
    <path class="st1" d="M1073.2,408.4c-27.6,0-42-9.9-42-44.2V122.2h-17.1v-24.3h17.1v-56.9l26.5-6.6v63.5h25.4v24.3h-25.4v240.9c0,14.9,6.1,20.4,19.9,20.4h7.7v23.8c-3.9.6-7.7,1.1-12.2,1.1"/>
    <path class="st1" d="M1204.7,345.5c0,51.4-19.3,65.2-49.7,65.2s-49.7-13.8-49.7-65.2v-184.6c0-50.8,19.3-66.3,49.7-66.3s49.7,13.8,49.7,65.2v185.7ZM1131.8,153.2v198.9c0,22.1,4.4,34.8,23.2,34.8s23.2-12.7,23.2-34.8v-198.9c0-22.1-4.4-34.8-23.2-34.8s-23.2,12.7-23.2,34.8"/>
    <path class="st1" d="M1262,407.3h-26.5V97.9h17.7c3.9,7.2,6.1,14.4,7.2,21,6.1-16.6,24.3-24.3,44.2-24.3h.5v27.1h-2.2c-21.5,0-40.9,8.3-40.9,24.9v260.8h0Z"/>
    <path class="st1" d="M1365.3,410.7c-30.4,0-49.7-13.8-49.7-65.2v-184.6c0-50.8,19.3-66.3,49.7-66.3s49.7,13.8,49.7,65.2v110.5h-72.9v81.8c0,22.1,4.4,34.8,23.2,34.8s23.2-12.7,23.2-34.8v-40.9h26.5v34.3c0,51.4-19.3,65.2-49.7,65.2M1342.1,247.1h46.4v-93.9c0-22.1-4.4-34.8-23.2-34.8s-23.2,12.7-23.2,34.8v93.9h0Z"/>
  </g>
  <g>
    <path class="st1" d="M141.8,0H43.5C19.5,0,0,19.5,0,43.5v333c0,24,19.5,43.5,43.5,43.5h98.3c24,0,43.6-19.5,43.6-43.5V43.5c0-24-19.5-43.5-43.5-43.5"/>
    <path class="st0" d="M117.4,77v1.4c3.1,1.7,4.6,3.2,7.6,5.1,8,5,17.9,14,16.7,44.9,2.2,6.7,3.2,20,5.3,24.2,4.2,8.3,7,13.7,8.2,21.5,0,0,1.2,12.2,2.8,13.1,8.3,1.9,5.9,2.7,7.1,4.1,1.3,1.7,6.1,1.6,6.1,6,1.7,2.2,2.9,4.5,3.8,6.9V43.5c0-18.3-14.9-33.2-33.2-33.2h-31.8c5.1,1.8,8,4,9.7,7.4,4.1.4,9,9.5,1.4,23.1,3.4,2.2.7,5.6-1.7,9.5-.7,1.2-1.5,3.5-3.7,3.3-2.9,6.1-6.4,12-9,12.3-.8,1-1.4,3.6-.2,4.8,3.9,1.7,8.6,4.1,10.9,6.3"/>
    <path class="st0" d="M175,226.1c-4.3,10.9-15,18.7-27.6,18.7s-29.6-13.3-29.6-29.6,9.6-25.7,22.6-28.8c-3.4-8.5-10.6-22.4-12.8-26.9-2-4.5-6.9-32.7-8-38.3-.2-1.2-12.8,7.3-12.8,7.8-.7.7-9.4,23.4-9.8,24.6-.2.8-.2,3.8-.2,3.8,0,0,4.3.5,6.7,8,2.4,7.4,9.8,34.6,9.8,34.6,0,0-2,2.1-2.1,1.9,9.4,31.3,6.1,44.8,10.3,54,5.3,13,6.7,11.3,11.2,22.1,3.3,7.9,6.9,39.1,8.1,40.5,5.1,6.4,7.8,11.4,7.8,15s-4.3,14.4-2.7,20.6c.9,3.7,1.4,11.9,3.2,13.5,0,0,1.6,3.1.8,4.5-.2.5-.7,1.2-.5,1.8,2.8,9.8,11.8,26.6-2.8,35.4h.3c15.9-2.5,27.9-16.1,27.9-32.9v-150.3h.2Z"/>
    <path class="st2" d="M137.6,370.1c-5.3-4.8-1.8-6.8-2-8.7-3.5-14.5-15.1-23.3-9.1-28.1-1.5-4.8-4.5-10.8-4.4-10.8-18-10.3-33.3-27.1-35.9-29.6-3.2-3.4-8.5-6.9-9.5-9.7-4.3-4-25.6-34.1-30.5-45.2l-8.6-1.2c-3.9-16-17-29.4-17.3-45.5-.1-6.1,2.7-19.1,3.8-21.7,1-2.6,6.1-6.9,6.1-6.9v-4.3c-18.8.5-13.4-1.4-16.6-8.7-2.3-5.1-.6-6.2.2-9.7,2.5-10.4,10.9-26.3,14.4-33.6,1.1-3.7,4.7-12.5,4.7-12.5,14-28.5,19.2-26.4,35.9-28l.8-1.2c16.7-.7,13.9-2,16.3-18-2.4,1-3.1-5-3.1-5-1.3-9.1,2.5-7.4,4.4-7.6.4-15,1.9-19.8,12.8-23.9h-56.1c-18.4,0-33.2,14.9-33.2,33.2v333c0,18.4,14.9,33.3,33.2,33.3h98.3c-11.3-6.1-4.6-17.7-4.2-39.6"/>
    <path class="st1" d="M62.1,388.8v-60.3h11.7c6.8,0,10.9,3.6,10.9,12.1v9c0,5.5-1.7,8.3-4,9.6,2.3,1.6,4,4.3,4,8.9v8.8c0,8.3-4.4,12-10.9,12h-11.7,0ZM70.1,362.6v18.6h3.1c2.8,0,3.5-1.4,3.5-4.3v-10.2c0-3-.9-4-3.6-4h-3ZM70.1,336.1v19.9h3c2.8,0,3.6-1,3.6-4.3v-11.6c0-2.8-.8-4.1-3.5-4.1h-3.1ZM103.6,376.6h-7.3l-1,12.2h-8.1l7.3-60.3h11.5l7,60.3h-8.4l-1-12.2ZM100,335.3h-.4c-.5,7.3-1.5,20-1.8,24.1l-.9,10.4h6.3l-.9-10.4c-.3-4.1-1.5-16.7-2.2-24.1M38.2,388.8h-7v-60.3h11.1l8.9,49.4c-.8-11.8-1.8-26.1-1.8-38.2v-11.1h7v60.3h-10.2l-8.9-48.3c.6,11.1.8,20,.8,29.3v19h0Z"/>
  </g>
</svg>